Coordinates
version=1
nRows=16
nColumns=36
inDegrees=yes

Units are S.I. units (second, meters, Newtons, ...)
If the header above contains a line with 'inDegrees', this indicates whether rotational values are in degrees (yes) or radians (no).

endheader
time	pelvis_tilt	pelvis_list	pelvis_rotation	pelvis_tx	pelvis_ty	pelvis_tz	hip_flexion_r	hip_adduction_r	hip_rotation_r	knee_angle_r	knee_angle_r_beta	ankle_angle_r	subtalar_angle_r	mtp_angle_r	hip_flexion_l	hip_adduction_l	hip_rotation_l	knee_angle_l	knee_angle_l_beta	ankle_angle_l	subtalar_angle_l	mtp_angle_l	lumbar_extension	lumbar_bending	lumbar_rotation	arm_flex_r	arm_add_r	arm_rot_r	elbow_flex_r	pro_sup_r	arm_flex_l	arm_add_l	arm_rot_l	elbow_flex_l	pro_sup_l
     14.88333330	      9.39453246	     -5.22938769	    183.67976384	      0.44940471	      0.84811429	      0.76869549	     38.03527259	     -9.86676261	      0.14794055	     23.00297497	      0.40147765	    -14.32648237	     -7.74673338	     -7.49999987	     13.70483327	      8.74411131	      1.73876678	     21.72409017	      0.37915690	     -3.40987906	     -8.00810036	     -7.49999987	     -2.84542977	     -5.03751065	    -12.08711447	      1.77210588	     -7.11202237	     -6.24801402	      9.81250807	     83.12869200	     17.21409186	    -17.73239209	    -10.33152575	     20.32964073	     94.51401393
     14.90000000	      8.75240391	     -6.99556003	    184.41052317	      0.45373812	      0.84794358	      0.76697328	     35.38562457	    -12.00061193	      0.90897295	     12.13570967	      0.21180809	    -21.42281140	     -5.05868216	     -7.49999987	     11.04642291	     10.43840247	      2.83326347	     20.46722014	      0.35722038	     -3.53725530	     -8.65219002	     -7.49999987	     -3.24158899	     -7.35916097	    -13.35607818	      0.43717614	     -6.07839409	     -7.01899195	      8.88755272	     83.39876990	     17.49397389	    -19.18997811	    -10.01611800	     20.18849230	     95.36120618
     14.91666670	      8.08997012	     -9.36994600	    185.56316642	      0.45777371	      0.84461389	      0.76629159	     33.09986332	    -15.12380117	      1.56562967	      3.30303023	      0.05764875	    -26.80360209	     -0.99932209	     -7.49999987	      8.62397596	     12.90562442	      4.00898198	     19.93795966	      0.34798304	     -2.92554696	     -8.99002158	     -7.49999987	     -3.89598474	    -10.42046775	    -14.43612228	     -1.27922208	     -4.95938508	     -8.39176559	      8.51887974	     82.56125269	     18.32335014	    -20.77252068	     -9.02095027	     20.12645844	     95.52656557
     14.93333330	      8.34064907	    -11.72589830	    186.39568770	      0.46096508	      0.83875743	      0.76592205	     33.79537707	    -18.04456542	      2.41120400	      0.43817629	      0.00764762	    -28.63244624	      2.55763833	     -7.49999987	      7.77627267	     15.43129874	      4.38014312	     20.84383379	      0.36379353	     -1.42500467	     -8.87434823	     -7.49999987	     -3.98349708	    -13.32138010	    -14.96227508	     -2.76352860	     -4.19454801	     -8.69670920	      8.08924721	     82.56720157	     19.24269971	    -22.13849711	     -8.92816486	     20.32691842	     95.65504388
     14.95000000	      8.92336543	    -13.00658302	    186.84765068	      0.46174248	      0.83366212	      0.76554154	     35.14093819	    -19.62122378	      1.75289151	      0.24443280	      0.00426616	    -28.05424953	      6.92362667	     -7.49999987	      7.83926118	     16.75753852	      3.73484581	     23.16459361	      0.40429843	      1.06851617	     -7.55690801	     -7.49999987	     -3.77153215	    -14.70475574	    -14.92987346	     -4.18101478	     -3.92032873	    -10.45441978	      8.04559958	     80.05028497	     19.87793280	    -22.86481996	     -7.45968119	     20.76438340	     92.78105874
     14.96666670	      9.23379734	    -13.49094662	    186.95024269	      0.45999196	      0.82964245	      0.76403339	     35.68623427	    -20.09118408	      1.51394846	      0.21116843	      0.00368558	    -27.61650577	      8.69716010	     -7.49999987	      7.90195545	     17.05416419	      2.69972770	     26.02747991	      0.45426522	      3.55997633	     -5.74521716	     -7.49999987	     -3.87945382	    -15.13106005	    -13.21661617	     -6.23224407	     -3.68926672	    -16.04898274	      9.22386240	     80.59918515	     22.16415051	    -22.79018843	     -2.21908426	     18.70715164	     96.03635257
     14.98333330	      9.35814509	    -13.23499942	    186.88891195	      0.45619587	      0.82617269	      0.76201211	     35.55445418	    -19.69724481	      0.78140985	      0.21879639	      0.00381872	    -27.37457830	      9.34058501	     -7.49999987	      7.97227720	     16.50954017	      2.07177061	     28.86952513	      0.50386827	      5.45604369	     -4.53205052	     -7.49999987	     -3.90594238	    -14.47854318	    -12.79954002	     -7.13314262	     -3.95668913	    -20.01492356	      9.44577081	     84.93320226	     22.25313220	    -22.69880248	     -1.55744164	     18.63212171	     96.70253645
     15.00000000	      9.26647129	    -12.55922725	    186.49068564	      0.45193298	      0.82320727	      0.75986096	     35.10981182	    -18.65599414	     -0.23014341	      0.25709671	      0.00448718	    -27.08011621	      9.16084899	     -7.49999987	      8.03908171	     15.50035818	      1.65356553	     31.59288232	      0.55139982	      6.95472800	     -3.80617562	     -7.49999987	     -3.96057415	    -13.32084652	    -12.26139283	     -7.74770692	     -4.52468224	    -20.29762366	      9.42072555	     84.01629729	     21.85125600	    -22.35303446	     -1.70642509	     18.50318941	     94.82792972
     15.01666670	      9.05832922	    -11.77238549	    185.75259054	      0.44846978	      0.82051280	      0.75787754	     34.52236546	    -17.28328588	     -1.41136983	      0.34876267	      0.00608706	    -27.54326780	      8.21978246	     -7.49999987	      8.17081687	     14.32987491	      1.15876916	     34.44816366	      0.60123388	      7.97037969	     -3.62214617	     -7.49999987	     -3.93877856	    -12.19654261	    -11.23070360	     -8.29743431	     -5.09756158	    -19.86954153	      9.40180792	     85.11252650	     21.75162195	    -21.93314635	     -0.90089153	     17.58217055	     95.52557776
     15.03333330	      8.88201535	    -11.06916164	    184.78210116	      0.44590455	      0.81846859	      0.75641862	     34.13214289	    -15.89259878	     -2.86562982	      0.50822332	      0.00887017	    -28.52557019	      7.21103214	     -7.49999987	      8.46255657	     13.27816567	      0.65509689	     37.64823458	      0.65708565	      8.44624431	     -4.18700867	     -7.49999987	     -3.88441994	    -11.13220389	    -10.37812028	     -8.49847667	     -5.62179478	    -20.07714567	      9.52105488	     84.10854594	     20.77923020	    -21.60571847	     -1.02125877	     17.73841346	     93.91351485
     15.05000000	      8.63864011	    -10.67894560	    183.67105233	      0.44293948	      0.81632744	      0.75446550	     33.73296077	    -14.79475059	     -4.08726692	      0.79221531	      0.01382677	    -29.57997085	      6.34226548	     -7.49999987	      8.81136475	     12.44771639	     -0.07282249	     41.37803471	      0.72218294	      8.21294806	     -4.96934068	     -7.49999987	     -3.70071837	    -10.62450017	     -9.56938395	     -7.93998777	     -6.06919577	    -19.84264072	      8.39055563	     83.19536254	     20.14280872	    -21.35608246	     -1.08494674	     16.51304441	     92.47716073
     15.06666670	      8.43269782	    -10.10797636	    182.68860464	      0.43813836	      0.81330465	      0.75180681	     33.08142631	    -13.66643025	     -5.38746134	      1.28884035	      0.02249451	    -30.48936705	      5.46111377	     -7.49999987	      9.33382377	     11.36003635	     -0.79138265	     45.68128437	      0.79728882	      6.88556169	     -6.10845402	     -7.49999987	     -3.43022037	     -9.90181375	     -8.58992352	     -7.67656935	     -6.55276323	    -19.57786217	      8.17551569	     83.50098976	     19.41790900	    -20.93694935	     -1.04612902	     15.73393783	     92.73029774
     15.08333330	      8.37030008	     -9.09324817	    181.96216859	      0.43297146	      0.80943903	      0.74856270	     32.26555567	    -12.26194350	     -6.70257974	      2.61302144	      0.04560583	    -30.73691463	      4.08550092	     -7.49999987	     10.30243078	      9.70071893	     -1.52700930	     50.52292847	      0.88179145	      4.39949049	     -7.09748064	     -7.49999987	     -2.91170133	     -8.75068252	     -7.76266561	     -7.16168140	     -7.12319332	    -19.28224553	      7.86845170	     83.77569506	     18.58408808	    -20.35087247	     -1.07954705	     14.82154943	     92.85515178
     15.10000000	      8.63490403	     -7.45721604	    181.49338627	      0.42861687	      0.80639334	      0.74495671	     31.74313216	    -10.33830943	     -7.78944919	      5.41693258	      0.09454331	    -29.67224612	      1.45007214	     -7.49999987	     12.11305967	      7.21628419	     -2.26342222	     56.00868892	      0.97753603	      1.17155202	     -7.59614820	     -7.49999987	     -1.81145276	     -7.03219967	     -7.47599732	     -5.95836399	     -8.08231706	    -16.47293647	      6.62985211	     89.02826028	     17.55539311	    -19.47588108	     -4.09302874	     13.30203232	     96.32657667
     15.11666670	      8.52895589	     -5.11538163	    180.96332399	      0.42326736	      0.80689061	      0.74021687	     30.90098833	     -7.65311093	     -8.50892149	      9.67036333	      0.16877968	    -27.22716940	     -2.28425966	     -7.49999987	     13.90762433	      3.69832318	     -2.90131604	     61.89213852	      1.08022160	     -2.26888607	     -7.76571997	     -7.49999987	     -1.12445065	     -4.54846141	     -6.83804407	     -4.94272688	     -8.96789874	    -14.27581367	      6.37255984	     89.39961726	     16.51254474	    -18.38311502	     -4.79672193	     12.35751419	     95.34169104
     15.13333330	      8.05070936	     -2.59048084	    180.42445017	      0.41675834	      0.81072720	      0.73407944	     29.72569648	     -4.67326430	     -8.65688607	     14.70745881	      0.25669358	    -24.22547556	     -6.76361012	     -7.49999987	     15.57756500	     -0.14017438	     -3.11110971	     67.63419530	      1.18043939	     -5.74944826	     -8.10901081	     -7.49999987	     -0.67207179	     -2.01654857	     -6.12949434	     -3.96436855	     -9.56457383	    -13.42226040	      6.35927784	     88.68297757	     15.43877765	    -17.24832772	     -5.63014979	     11.55254515	     93.83614623
